<?xml version="1.0" standalone="no"?>
<!DOCTYPE svg PUBLIC "-//W3C//DTD SVG 20010904//EN"
 "http://www.w3.org/TR/2001/REC-SVG-20010904/DTD/svg10.dtd">
<svg version="1.0" xmlns="http://www.w3.org/2000/svg"
 width="4300.000000pt" height="4300.000000pt" viewBox="0 0 4300.000000 4300.000000"
 preserveAspectRatio="xMidYMid meet">
<metadata>
Created by potrace 1.14, written by Peter Selinger 2001-2017
</metadata>
<g transform="translate(0.000000,4300.000000) scale(0.100000,-0.100000)"
fill="#000000" stroke="none">
<path d="M29380 38382 c-19 -1 -143 -7 -275 -12 -301 -12 -421 -19 -465 -27
-48 -8 -64 -10 -220 -18 -74 -4 -142 -11 -150 -14 -8 -4 -33 -8 -55 -10 -74
-4 -239 -21 -300 -31 -33 -5 -114 -16 -180 -24 -66 -8 -149 -20 -185 -26 -36
-6 -96 -15 -135 -22 -38 -6 -95 -17 -125 -24 -30 -8 -68 -14 -85 -14 -16 0
-64 -7 -105 -16 -41 -8 -127 -26 -190 -40 -63 -13 -149 -31 -190 -40 -41 -9
-111 -25 -155 -36 -44 -10 -101 -23 -127 -28 -26 -5 -56 -14 -67 -20 -12 -6
-21 -9 -21 -6 0 5 -70 -10 -150 -34 -36 -10 -90 -26 -120 -34 -190 -53 -256
-72 -345 -98 -147 -45 -553 -181 -680 -229 -60 -22 -132 -49 -160 -59 -27 -10
-84 -33 -125 -50 -41 -18 -97 -41 -125 -52 -238 -95 -484 -212 -860 -408 -157
-82 -402 -225 -555 -324 -36 -24 -87 -56 -113 -72 -26 -16 -66 -42 -89 -59
-22 -16 -64 -46 -93 -65 -28 -19 -73 -51 -100 -70 -26 -19 -85 -62 -130 -96
-342 -250 -890 -778 -1079 -1038 -16 -22 -33 -45 -38 -51 -63 -78 -102 -132
-139 -190 -25 -39 -62 -92 -82 -118 -20 -27 -37 -53 -37 -59 0 -6 -24 -50 -54
-97 -52 -84 -111 -202 -136 -271 -6 -19 -23 -58 -36 -86 -14 -27 -28 -75 -33
-105 -5 -29 -23 -88 -39 -129 -48 -124 -54 -143 -67 -200 -7 -30 -21 -82 -33
-115 -11 -33 -32 -111 -47 -174 -14 -63 -30 -122 -36 -132 -5 -10 -13 -50 -19
-90 -12 -84 -19 -95 -80 -122 -25 -11 -69 -35 -98 -53 -29 -19 -76 -47 -105
-62 -161 -88 -598 -364 -662 -419 -5 -5 -17 -12 -25 -15 -8 -3 -62 -41 -120
-83 -58 -43 -130 -97 -160 -119 -52 -39 -92 -71 -292 -232 -297 -241 -701
-632 -883 -855 -185 -226 -250 -308 -280 -352 -19 -29 -71 -104 -115 -167 -45
-63 -84 -122 -87 -130 -4 -8 -10 -17 -14 -20 -6 -5 -99 -169 -99 -176 0 -2
-17 -32 -38 -66 -66 -110 -196 -390 -217 -468 -1 -3 -5 -14 -10 -25 -37 -87
-65 -162 -65 -171 0 -38 -335 -271 -570 -396 -41 -22 -114 -65 -161 -94 -47
-30 -89 -54 -92 -54 -7 0 -129 -72 -212 -125 -27 -17 -66 -39 -85 -49 -19 -9
-82 -46 -139 -81 -57 -36 -105 -65 -108 -65 -8 0 -531 -327 -630 -393 -50 -34
-104 -70 -120 -80 -89 -55 -319 -227 -569 -427 -274 -219 -692 -680 -843 -929
-18 -30 -56 -81 -84 -112 -56 -64 -147 -205 -147 -229 0 -8 -7 -28 -16 -45 -9
-16 -35 -66 -59 -110 -84 -159 -125 -228 -330 -556 -27 -44 -93 -148 -145
-231 -52 -84 -118 -186 -146 -228 -29 -41 -87 -131 -130 -200 -43 -69 -97
-152 -120 -185 -23 -33 -73 -107 -110 -165 -37 -58 -106 -163 -153 -234 -47
-71 -110 -167 -140 -215 -29 -47 -71 -113 -94 -146 -64 -94 -139 -209 -177
-271 -54 -89 -137 -216 -158 -244 -10 -14 -49 -74 -86 -135 -37 -60 -78 -126
-91 -145 -33 -52 -148 -233 -162 -255 -55 -93 -246 -399 -254 -408 -14 -17
-279 -446 -279 -452 0 -3 -5 -11 -11 -18 -22 -24 -519 -827 -519 -838 0 -5 -4
-9 -10 -9 -5 0 -10 -5 -10 -10 0 -6 -16 -34 -35 -63 -19 -28 -35 -55 -35 -59
0 -4 -34 -58 -76 -119 -41 -61 -79 -122 -84 -134 -5 -13 -25 -44 -44 -70 -20
-26 -36 -52 -36 -58 0 -7 -16 -32 -35 -56 -19 -24 -35 -49 -35 -56 0 -6 -18
-37 -40 -68 -22 -30 -40 -58 -40 -62 0 -3 -16 -31 -35 -61 -19 -30 -35 -57
-35 -61 0 -3 -7 -14 -15 -23 -21 -23 -85 -130 -85 -141 0 -5 -4 -9 -8 -9 -5 0
-16 -15 -25 -32 -9 -18 -34 -60 -55 -93 -21 -33 -105 -168 -186 -300 -82 -132
-174 -278 -205 -325 -31 -47 -68 -105 -82 -130 -13 -25 -36 -63 -51 -84 -16
-21 -28 -43 -28 -48 0 -5 -18 -35 -40 -65 -22 -31 -40 -60 -40 -64 0 -9 -153
-258 -290 -474 -139 -218 -290 -465 -290 -475 0 -4 -3 -10 -8 -12 -6 -3 -59
-80 -87 -130 -36 -63 -159 -249 -171 -259 -8 -6 -14 -16 -14 -21 0 -5 -37 -66
-83 -136 -46 -70 -111 -172 -146 -227 -34 -55 -90 -142 -124 -192 -34 -51 -88
-132 -120 -180 -31 -49 -67 -101 -78 -118 -11 -16 -48 -72 -82 -124 -145 -220
-204 -309 -230 -347 -16 -21 -56 -81 -90 -133 -182 -277 -286 -429 -297 -436
-4 -3 -36 -49 -70 -102 -34 -54 -89 -138 -123 -186 -34 -49 -89 -127 -122
-175 -63 -92 -75 -109 -226 -317 -84 -118 -154 -211 -362 -489 -38 -50 -80
-109 -95 -131 -15 -22 -53 -76 -86 -119 -32 -44 -90 -131 -128 -194 -68 -111
-218 -396 -218 -413 0 -5 -13 -31 -30 -57 -16 -27 -36 -68 -45 -91 -8 -23 -23
-54 -33 -69 -11 -15 -38 -70 -61 -122 -41 -94 -460 -935 -538 -1080 -47 -87
-74 -139 -101 -195 -11 -22 -29 -58 -40 -80 -11 -22 -30 -60 -42 -85 -13 -25
-54 -106 -93 -180 -38 -74 -141 -274 -228 -445 -349 -687 -582 -1167 -656
-1355 -14 -36 -29 -69 -34 -74 -5 -6 -9 -15 -9 -22 0 -7 -17 -50 -39 -96 -48
-104 -48 -105 -60 -211 -6 -55 -18 -101 -30 -120 -10 -18 -31 -72 -46 -122
-24 -78 -27 -102 -23 -190 3 -73 9 -111 24 -140 13 -26 20 -65 22 -113 4 -85
18 -131 65 -205 43 -66 107 -121 386 -325 36 -26 108 -80 160 -120 210 -160
320 -243 396 -300 44 -33 112 -84 150 -113 39 -29 115 -87 170 -128 55 -41
125 -96 155 -121 30 -26 74 -59 98 -74 55 -34 149 -105 234 -175 37 -31 86
-70 110 -87 24 -17 87 -64 142 -105 54 -41 115 -85 135 -99 20 -13 78 -56 130
-95 51 -38 115 -86 142 -105 26 -19 116 -84 199 -145 255 -186 254 -185 450
-319 30 -21 64 -46 75 -56 19 -17 32 -26 114 -75 18 -11 63 -42 100 -68 83
-61 437 -297 445 -297 3 0 29 -18 58 -40 29 -22 57 -40 62 -40 5 0 17 -7 26
-15 8 -8 58 -40 110 -71 52 -31 106 -67 120 -79 14 -13 41 -31 60 -41 19 -11
67 -40 105 -65 111 -72 127 -82 175 -107 25 -14 52 -30 60 -37 8 -7 47 -30 85
-52 39 -22 144 -85 235 -140 91 -55 208 -126 260 -157 52 -31 102 -61 110 -67
25 -15 141 -80 210 -117 36 -19 92 -50 125 -69 33 -19 68 -39 79 -45 10 -5 35
-19 55 -31 20 -11 101 -54 181 -95 80 -41 150 -78 155 -82 23 -17 165 -90 220
-113 148 -62 201 -92 259 -146 85 -79 116 -99 196 -127 68 -23 80 -24 283 -22
l212 3 80 39 c101 49 171 116 221 209 38 71 38 74 42 197 4 116 2 131 -21 187
l-25 61 29 48 c16 27 29 55 29 63 0 7 20 55 45 107 25 51 45 96 45 101 0 4 13
33 30 64 16 31 39 80 50 110 12 30 34 81 50 114 66 141 100 216 100 221 0 2
16 39 36 82 20 42 44 95 54 117 10 22 35 75 54 117 20 42 36 80 36 83 0 3 18
44 40 90 22 46 40 87 40 91 0 4 20 48 44 98 81 166 126 265 126 276 0 6 9 28
20 48 29 54 130 269 130 277 0 4 20 48 45 98 25 50 47 97 48 106 2 9 27 66 56
126 118 245 151 314 186 390 66 145 119 249 151 302 18 28 43 75 56 105 21 50
58 116 153 273 23 39 48 81 56 95 8 14 17 27 20 30 3 3 13 19 22 35 8 17 35
57 60 90 25 33 67 89 94 125 57 77 231 259 289 304 175 134 242 182 335 240
59 36 110 66 113 66 4 0 44 21 89 48 102 59 335 174 662 327 28 13 100 47 160
75 61 28 131 60 156 70 76 30 775 385 879 446 52 31 129 74 170 96 75 40 129
74 380 241 237 158 254 170 311 216 31 25 89 71 129 101 93 71 263 213 364
304 188 170 596 594 683 708 25 34 134 169 254 317 25 31 71 92 102 136 31 44
77 107 101 140 25 33 68 97 96 143 29 46 67 103 86 128 19 24 78 115 131 202
53 86 106 171 118 187 12 17 41 66 65 110 24 44 67 119 96 166 30 47 54 89 54
93 0 3 20 38 45 78 25 40 45 76 45 81 0 22 45 68 93 95 29 16 76 55 104 86
l52 57 7 -28 c4 -16 18 -49 31 -74 13 -26 23 -52 23 -58 0 -6 4 -19 9 -29 5
-9 24 -55 42 -102 96 -248 263 -541 484 -850 117 -165 499 -563 640 -669 22
-17 74 -57 115 -91 41 -33 98 -76 125 -94 28 -19 57 -41 64 -50 7 -9 39 -30
70 -48 31 -18 116 -69 188 -115 73 -45 162 -95 198 -111 64 -28 66 -30 104
-108 33 -69 72 -174 83 -225 2 -11 -32 -40 -107 -91 -194 -131 -341 -243 -440
-334 -193 -179 -235 -253 -235 -418 0 -50 7 -112 15 -138 58 -191 209 -298
422 -298 51 0 93 -2 93 -5 0 -3 -22 -54 -48 -113 -27 -59 -66 -155 -86 -214
l-38 -107 4 -138 c3 -128 6 -142 32 -192 38 -74 116 -154 181 -185 76 -38 232
-52 341 -31 136 25 271 159 363 360 10 22 39 83 65 137 25 53 46 101 46 106 0
6 6 23 14 39 38 78 58 122 74 165 l17 47 24 -62 c130 -345 175 -416 319 -508
89 -56 146 -71 272 -71 167 1 228 28 347 155 76 81 94 129 100 268 5 92 2 119
-22 215 -29 114 -56 173 -99 213 -27 25 -70 126 -61 141 3 5 17 5 33 -1 15 -6
79 -11 142 -11 160 1 232 26 328 115 53 50 95 116 117 185 13 41 16 79 13 165
-3 102 -7 118 -36 181 -18 37 -55 92 -82 120 -51 54 -77 69 -335 191 -185 88
-345 203 -372 266 -6 16 -11 29 -9 29 2 0 -2 17 -9 37 -13 38 -13 38 24 63 80
54 179 141 246 215 39 43 96 106 128 140 31 34 57 65 57 70 0 4 20 31 44 59
24 28 62 83 86 121 23 39 52 84 64 100 13 17 41 64 63 105 22 41 52 94 65 118
l25 43 53 -43 c81 -66 201 -149 349 -240 73 -46 144 -92 158 -103 l25 -20
-134 -50 c-222 -82 -288 -127 -359 -251 l-34 -59 0 -140 0 -141 35 -58 c48
-80 155 -179 216 -200 78 -26 267 -22 368 8 45 14 122 37 171 51 50 15 99 33
110 40 11 7 35 16 54 20 34 7 97 32 166 65 22 10 112 47 200 81 88 33 172 67
187 75 16 9 29 10 33 4 3 -5 24 -15 45 -21 22 -7 40 -15 40 -19 0 -10 -400
-390 -486 -462 -116 -97 -138 -114 -177 -137 -55 -33 -153 -155 -173 -213 -24
-74 -17 -277 13 -339 26 -54 100 -140 146 -168 62 -38 177 -71 248 -71 146 0
333 104 639 355 67 55 141 116 165 135 24 19 86 71 137 116 l94 81 -35 -66
c-30 -58 -35 -77 -39 -159 -4 -83 -1 -101 23 -168 15 -41 32 -80 39 -87 6 -7
28 -34 50 -60 73 -91 159 -127 306 -127 174 0 256 45 390 211 94 118 180 234
180 244 0 3 13 20 30 38 16 17 37 46 47 65 16 28 21 32 46 26 31 -6 105 -36
147 -58 14 -7 43 -19 65 -26 22 -7 45 -16 50 -20 6 -4 26 -11 45 -15 19 -4 44
-13 55 -21 17 -11 118 -47 165 -59 8 -2 60 -20 115 -39 135 -46 283 -89 380
-110 44 -10 98 -22 120 -27 40 -10 125 -27 265 -54 41 -7 116 -17 165 -21 110
-9 102 -8 145 -17 117 -23 762 -36 875 -17 161 27 352 77 414 108 20 10 59 29
86 42 140 65 340 214 488 363 213 214 370 456 517 792 55 124 160 433 160 468
0 13 4 27 8 32 8 9 15 33 52 173 6 24 18 82 26 130 9 48 19 105 24 127 4 22
13 68 19 102 6 35 16 74 21 89 6 14 10 40 10 58 0 30 3 33 55 49 31 9 61 17
68 17 7 0 48 11 92 25 44 13 124 36 178 51 54 14 185 55 290 90 392 129 451
158 553 266 87 92 113 177 107 351 -3 101 -28 183 -74 239 -27 34 -28 39 -12
44 10 3 41 17 69 30 28 13 54 24 58 24 4 0 37 14 73 30 35 17 67 30 70 30 10
0 124 47 158 64 16 8 31 13 34 11 2 -3 -7 -26 -22 -52 -41 -78 -59 -155 -59
-259 1 -136 26 -206 104 -290 100 -107 170 -136 324 -136 131 1 202 24 274 89
l39 35 15 -37 c25 -59 130 -161 205 -197 64 -32 70 -33 191 -33 121 0 127 1
190 33 104 52 187 152 241 289 11 28 11 28 35 -34 13 -35 34 -80 47 -100 32
-50 110 -122 172 -159 49 -29 52 -29 205 -29 150 0 157 1 200 26 120 71 221
226 228 351 l4 66 32 -19 c49 -30 102 -41 207 -41 157 1 224 28 322 131 81 84
99 131 105 264 5 129 -7 176 -76 287 -26 41 -51 82 -57 91 -56 93 -396 447
-551 575 -77 63 -103 91 -105 111 -3 16 -4 156 -4 313 l0 285 33 54 c19 30 40
72 49 93 8 21 19 38 23 38 4 0 13 15 21 32 7 18 25 51 39 73 31 46 193 366
214 423 23 59 121 296 128 307 34 57 171 487 212 665 40 173 66 312 72 385 3
44 10 87 14 95 8 17 23 293 23 440 0 143 -13 400 -23 440 -5 19 -11 69 -15
110 -4 41 -17 118 -30 170 -12 52 -27 118 -33 145 -16 80 -39 167 -56 215 -14
40 -51 153 -93 280 -8 25 -21 59 -29 77 -8 17 -14 36 -14 42 0 6 -11 33 -24
59 -13 26 -45 96 -70 155 -26 59 -83 179 -128 265 -45 86 -94 181 -109 210
-15 29 -34 61 -43 71 -9 10 -16 21 -16 26 0 8 -132 206 -253 380 -42 62 -178
230 -271 339 -67 77 -516 527 -591 591 -168 144 -451 366 -614 483 -25 18 -86
62 -136 97 -49 36 -126 90 -170 120 -44 30 -105 73 -135 95 -162 119 -207 137
-343 142 l-77 3 -68 85 c-37 46 -106 125 -154 175 -49 50 -88 95 -88 99 0 4
15 25 33 46 17 21 41 56 52 77 11 21 38 62 60 91 58 77 121 162 147 198 l22
31 91 -23 c49 -14 119 -33 155 -44 72 -22 182 -43 340 -66 58 -9 130 -19 160
-25 217 -36 788 -54 1115 -36 265 15 464 32 535 47 101 21 204 30 234 21 17
-6 65 -12 106 -14 86 -4 202 -46 276 -99 25 -18 64 -45 87 -61 46 -30 234
-212 284 -275 l32 -40 -22 -14 c-12 -8 -49 -25 -82 -37 -33 -12 -64 -26 -70
-30 -5 -5 -89 -40 -185 -79 -96 -38 -188 -77 -205 -86 -16 -9 -35 -16 -42 -16
-7 0 -29 -7 -50 -16 -21 -9 -47 -20 -58 -24 -11 -4 -38 -15 -60 -24 -22 -8
-73 -25 -114 -36 -135 -36 -278 -147 -354 -275 l-42 -70 0 -130 c0 -125 1
-132 30 -190 35 -70 131 -176 189 -210 23 -13 70 -29 104 -36 80 -15 281 -6
343 15 24 9 53 16 64 16 11 1 36 7 55 14 19 8 79 30 132 49 l98 36 -16 -37
c-10 -23 -18 -77 -21 -142 -6 -123 7 -179 62 -270 48 -78 100 -122 193 -159
149 -60 316 -36 444 64 l56 45 5 -108 c7 -136 13 -186 38 -297 33 -142 90
-223 211 -296 l72 -44 141 0 141 0 58 35 c32 19 86 64 120 100 84 90 105 147
108 303 2 64 5 117 8 117 3 0 46 -41 95 -91 50 -50 108 -101 130 -114 52 -30
127 -45 223 -45 147 1 220 30 310 124 33 34 74 90 92 126 31 61 34 73 38 186
3 101 1 133 -17 197 -42 147 -189 405 -490 857 -148 223 -156 238 -162 295 -6
57 -35 183 -65 287 -8 26 -14 55 -14 65 0 10 -11 52 -25 93 -36 107 -102 329
-110 370 -4 19 -12 41 -17 48 -6 6 -8 12 -5 12 4 0 0 19 -9 43 -41 120 -111
217 -190 263 -24 14 -44 31 -44 38 0 7 -12 28 -26 47 -14 19 -33 50 -42 69 -9
19 -38 70 -64 112 -26 43 -48 81 -48 85 0 5 -14 28 -31 53 -16 25 -35 54 -40
65 -5 11 -17 32 -27 47 -9 15 -52 85 -96 155 -43 70 -89 142 -103 158 -51 64
-123 165 -123 173 0 4 -13 21 -29 36 -16 16 -39 53 -50 82 -12 30 -30 78 -42
108 -20 54 -20 54 -1 92 50 101 64 169 60 292 -4 108 -7 122 -37 180 -18 35
-47 80 -66 100 l-33 38 -4 124 c-4 153 -19 189 -121 297 -79 83 -167 133 -246
141 l-49 4 -16 57 c-9 32 -16 67 -16 80 0 22 -14 86 -51 236 -11 44 -24 105
-29 135 -5 30 -21 107 -35 170 -15 63 -33 149 -40 190 -8 41 -19 85 -25 98 -5
13 -10 32 -10 43 0 18 -10 57 -81 324 -17 66 -40 149 -49 185 -10 36 -29 99
-44 140 -15 41 -33 95 -40 120 -16 53 -55 165 -83 235 -11 28 -50 128 -87 224
-36 96 -70 179 -75 185 -5 6 -12 22 -16 36 -4 14 -24 61 -45 105 -20 44 -43
96 -50 115 -43 107 -297 593 -374 712 -20 31 -36 60 -36 64 0 11 -271 448
-294 474 -13 14 -42 57 -66 95 -24 39 -54 84 -67 100 -13 17 -56 75 -95 130
-107 151 -132 185 -336 439 -26 32 -70 84 -97 115 -28 31 -94 106 -147 166
-130 148 -593 604 -751 740 -71 61 -165 142 -210 180 -45 39 -127 104 -181
145 -54 41 -122 92 -150 113 -28 22 -73 55 -101 74 -27 19 -80 55 -116 81 -98
70 -463 311 -549 364 -65 40 -113 67 -195 112 -11 6 -22 14 -25 17 -7 8 -83
53 -150 87 -92 48 -194 104 -220 121 -34 23 -276 141 -288 141 -5 0 -15 6 -21
14 -7 8 -37 24 -69 37 -31 12 -73 33 -93 45 -19 12 -71 36 -114 53 -44 18 -84
36 -90 41 -6 5 -48 23 -93 39 -45 17 -99 39 -120 50 -34 18 -93 41 -267 105
-33 13 -76 28 -95 36 -70 26 -377 128 -435 144 -125 35 -140 40 -150 47 -5 4
-28 10 -50 14 -22 4 -54 11 -72 16 -17 6 -44 12 -60 15 -15 3 -59 14 -98 25
-66 18 -118 30 -290 65 -38 7 -90 18 -115 24 -45 11 -133 26 -330 55 -58 9
-130 20 -160 25 -30 5 -120 16 -200 24 -80 8 -152 16 -160 19 -8 3 -76 9 -150
12 -74 4 -160 9 -190 11 -217 16 -358 19 -751 18 -245 -1 -464 -5 -485 -9 -21
-5 -61 -9 -89 -10 -142 -5 -351 -18 -357 -21 -4 -3 -31 -7 -60 -9 -254 -24
-312 -31 -453 -53 -38 -6 -90 -14 -115 -17 -95 -11 -257 -35 -300 -44 -25 -5
-74 -14 -110 -21 -142 -25 -230 -42 -334 -66 -60 -13 -110 -23 -112 -21 -2 2
22 21 53 43 30 21 70 51 87 65 17 14 76 56 132 92 55 36 107 73 114 82 7 8 16
15 21 15 5 0 40 20 79 45 39 25 73 45 76 45 3 0 51 28 107 63 201 124 719 386
912 462 39 15 93 38 121 51 28 13 80 35 115 48 65 24 86 32 239 91 47 19 96
36 110 40 14 4 68 22 120 40 52 18 142 47 200 65 143 43 156 47 225 66 33 8
96 26 140 39 123 36 315 82 500 120 44 9 118 25 165 35 47 10 108 22 135 25
28 4 64 11 80 16 17 5 68 13 115 19 47 6 108 15 135 19 28 5 88 14 135 20 47
7 114 16 150 22 36 5 115 15 175 20 142 14 261 27 305 33 19 3 109 8 200 11
91 4 172 9 180 12 66 23 1345 23 1410 0 8 -3 94 -9 190 -12 192 -8 209 -9 260
-18 19 -4 60 -9 90 -11 148 -13 271 -27 325 -35 33 -6 98 -15 145 -20 47 -6
108 -14 135 -20 28 -5 68 -12 90 -15 190 -31 244 -40 340 -61 107 -23 244 -50
295 -59 14 -2 57 -13 95 -24 39 -11 115 -30 170 -41 55 -12 127 -30 159 -41
33 -11 65 -20 72 -20 13 0 135 -34 224 -63 25 -8 72 -23 105 -32 143 -41 326
-100 405 -130 47 -18 105 -40 130 -48 114 -38 202 -71 285 -107 50 -21 117
-49 150 -61 33 -13 74 -32 90 -41 17 -10 36 -18 43 -18 7 0 51 -18 98 -40 47
-22 93 -40 103 -40 9 0 21 -4 26 -9 6 -5 69 -35 140 -66 184 -80 176 -76 326
-149 75 -36 140 -66 144 -66 4 0 19 -9 34 -20 15 -10 70 -40 121 -66 61 -31
117 -69 163 -111 64 -59 169 -120 237 -138 14 -4 50 -24 80 -46 30 -21 80 -55
110 -75 115 -78 208 -155 285 -237 114 -122 256 -283 269 -306 13 -22 51 -71
118 -154 26 -31 59 -78 74 -105 15 -26 37 -58 49 -72 26 -30 105 -156 105
-168 0 -4 14 -30 31 -58 41 -63 93 -165 118 -230 10 -27 28 -66 38 -85 11 -19
27 -56 37 -84 10 -27 28 -72 41 -100 24 -52 36 -84 78 -200 14 -38 39 -106 56
-150 52 -139 80 -238 86 -315 4 -41 11 -91 16 -110 5 -20 11 -94 15 -165 3
-72 9 -141 13 -155 9 -33 7 -521 -3 -585 -15 -97 -77 -318 -118 -423 -56 -143
-144 -312 -236 -452 -78 -120 -165 -254 -197 -305 -11 -16 -38 -66 -61 -110
-23 -44 -49 -93 -58 -110 -8 -16 -25 -64 -38 -105 -19 -65 -22 -96 -22 -240 1
-159 2 -168 32 -249 36 -96 57 -126 161 -234 89 -92 140 -126 241 -162 68 -24
89 -27 225 -27 157 -1 175 2 344 59 41 14 98 38 125 53 28 15 67 31 86 35 39
8 205 93 260 133 132 96 380 381 496 568 135 219 285 554 359 799 49 164 55
187 55 203 0 9 11 57 24 106 27 100 43 190 57 311 9 88 15 135 23 180 26 156
26 871 0 945 -3 8 -12 69 -19 135 -20 180 -43 323 -60 385 -8 30 -20 84 -25
119 -6 35 -13 68 -16 73 -3 5 -14 42 -25 81 -43 168 -50 193 -59 212 -5 11
-34 97 -65 191 -31 94 -62 180 -70 190 -8 11 -15 26 -15 35 -1 47 -177 410
-343 707 -25 45 -55 95 -67 110 -11 15 -62 90 -113 167 -82 125 -159 230 -313
430 -25 33 -65 80 -88 105 -23 25 -58 66 -78 91 -107 135 -571 588 -757 739
-51 41 -107 88 -124 103 -71 63 -439 337 -453 337 -7 0 -64 40 -94 66 -30 26
-514 324 -525 324 -5 0 -16 6 -24 14 -29 25 -442 237 -661 339 -69 32 -136 65
-150 72 -14 7 -57 25 -95 40 -38 14 -92 37 -120 50 -27 12 -68 30 -90 38 -22
8 -87 33 -145 55 -223 85 -270 102 -288 102 -10 0 -22 3 -26 7 -7 7 -21 13
-156 60 -83 30 -240 79 -350 110 -30 9 -88 26 -128 39 -40 13 -83 24 -96 24
-14 0 -27 4 -30 9 -4 5 -25 12 -49 16 -23 4 -78 17 -122 30 -44 13 -116 31
-160 40 -44 10 -114 27 -155 38 -41 11 -95 24 -120 28 -60 11 -136 27 -240 51
-47 11 -114 24 -150 29 -36 5 -76 11 -90 15 -14 3 -65 12 -115 21 -49 8 -112
19 -140 24 -27 5 -86 13 -130 19 -44 5 -90 12 -103 15 -13 3 -78 13 -145 21
-67 9 -151 20 -187 25 -137 19 -422 46 -645 63 -38 3 -86 8 -105 11 -41 6
-138 12 -430 26 -193 9 -1223 18 -1310 11z m2815 -21032 c78 -30 201 -85 229
-103 14 -10 26 -15 26 -12 0 6 336 -166 389 -200 22 -14 43 -25 45 -25 10 0
122 -75 146 -98 13 -12 28 -22 32 -22 5 0 45 -28 89 -62 45 -35 89 -69 98 -76
32 -23 186 -176 239 -237 70 -82 129 -168 160 -234 14 -31 36 -73 49 -93 13
-21 21 -38 18 -38 -2 0 5 -21 16 -47 21 -49 59 -156 64 -183 4 -21 35 -121 46
-148 13 -33 11 -53 -6 -71 -22 -23 -84 -101 -130 -161 -22 -29 -52 -67 -66
-84 -23 -28 -80 -106 -104 -144 -13 -20 -34 -48 -66 -86 -14 -17 -33 -42 -42
-56 -14 -20 -17 -21 -17 -6 0 29 -57 129 -98 171 -85 87 -160 116 -311 119
-60 1 -124 -3 -146 -10 -22 -6 -42 -11 -45 -11 -7 1 -102 -33 -122 -44 -10 -5
-25 -9 -33 -9 -8 0 -15 -4 -15 -10 0 -5 -11 -10 -24 -10 -13 0 -45 -9 -72 -19
-171 -67 -208 -81 -212 -76 -3 2 1 18 8 34 11 27 16 155 7 191 -14 57 -21 77
-32 90 -6 8 -15 23 -19 34 -13 38 -83 116 -135 150 -70 47 -115 58 -237 60
l-100 1 18 50 c10 27 23 82 29 120 6 39 14 75 17 80 8 12 10 24 16 88 3 26 10
64 15 85 5 20 12 57 14 82 3 25 8 52 11 60 3 8 8 44 11 80 3 36 8 81 9 101 2
20 6 45 10 55 5 17 15 145 20 259 0 22 5 45 9 52 4 6 4 14 -1 17 -10 6 -9 57
2 74 4 7 3 12 -3 12 -7 0 -7 9 0 28 6 15 11 100 12 188 l1 161 66 -24 c36 -14
88 -33 115 -43z"/>
<path d="M13702 33159 c-78 -15 -158 -58 -215 -118 -45 -47 -58 -70 -82 -141
-36 -109 -37 -186 -1 -290 24 -66 54 -122 170 -305 18 -27 65 -106 106 -175
40 -69 110 -186 156 -260 45 -74 89 -151 99 -170 10 -19 26 -46 35 -60 10 -14
75 -119 146 -234 71 -115 147 -237 169 -272 22 -34 64 -102 94 -151 30 -48 69
-106 86 -128 18 -22 56 -80 86 -129 80 -132 161 -215 251 -256 66 -31 81 -34
163 -33 116 0 194 30 281 107 50 45 66 68 94 133 46 108 46 203 2 317 -17 43
-38 86 -46 95 -8 9 -29 43 -46 76 -17 33 -51 94 -75 135 -23 41 -57 105 -75
142 -18 37 -41 75 -51 84 -11 9 -19 22 -19 27 0 6 -21 44 -47 86 -26 42 -60
101 -75 131 -16 30 -41 75 -57 100 -30 45 -72 115 -159 265 -26 44 -56 94 -66
110 -11 17 -29 46 -41 65 -12 19 -42 67 -67 105 -25 39 -57 93 -72 120 -28 53
-85 145 -150 242 -21 32 -56 85 -78 118 -43 67 -179 209 -219 231 -62 32 -210
48 -297 33z"/>
<path d="M16189 32788 c-142 -37 -249 -123 -293 -236 -31 -78 -52 -153 -61
-212 -3 -25 -10 -58 -15 -75 -5 -16 -12 -56 -15 -88 -6 -57 -9 -78 -20 -127
-3 -14 -7 -45 -10 -69 -2 -24 -7 -53 -11 -64 -19 -59 -25 -680 -8 -764 27
-133 107 -230 234 -284 65 -27 87 -32 160 -32 120 0 211 38 297 126 66 65 86
103 98 177 14 92 16 103 20 110 3 4 7 43 10 86 7 104 12 149 19 171 3 10 8 42
11 72 3 30 8 57 10 61 2 3 6 44 9 91 7 91 14 155 21 179 2 8 7 42 10 75 4 33
15 97 26 142 32 139 41 247 26 328 -27 154 -147 283 -307 328 -85 24 -132 25
-211 5z"/>
<path d="M12168 31015 c-121 -30 -234 -144 -277 -278 -27 -82 -15 -262 22
-334 15 -27 115 -126 175 -171 56 -41 493 -242 529 -242 10 0 26 -7 37 -15 10
-8 57 -26 105 -41 47 -15 114 -37 149 -50 34 -13 70 -24 79 -24 10 0 35 -6 58
-14 159 -53 299 -89 400 -102 28 -3 53 -8 56 -10 23 -14 206 -41 254 -37 137
10 273 108 338 243 29 60 31 73 31 170 0 93 -4 111 -27 160 -15 30 -51 83 -82
117 -45 50 -68 67 -129 92 -41 17 -82 31 -91 31 -9 0 -49 11 -88 24 -40 13
-97 31 -127 40 -109 32 -317 99 -420 136 -58 21 -118 42 -135 48 -16 6 -75 28
-130 50 -55 22 -131 52 -170 67 -38 16 -77 34 -85 40 -8 7 -62 34 -119 60
-100 46 -107 47 -206 49 -56 2 -122 -2 -147 -9z"/>
</g>
</svg>
