<?xml version="1.0" standalone="no"?>
<!DOCTYPE svg PUBLIC "-//W3C//DTD SVG 20010904//EN"
 "http://www.w3.org/TR/2001/REC-SVG-20010904/DTD/svg10.dtd">
<svg version="1.0" xmlns="http://www.w3.org/2000/svg"
 width="1042.000000pt" height="1042.000000pt" viewBox="0 0 1042.000000 1042.000000"
 preserveAspectRatio="xMidYMid meet">
<metadata>
Created by potrace 1.14, written by Peter Selinger 2001-2017
</metadata>
<g transform="translate(0.000000,1042.000000) scale(0.100000,-0.100000)"
fill="#000000" stroke="none">
<path d="M3160 10235 c-177 -176 -357 -349 -914 -878 -138 -131 -332 -316
-431 -412 -99 -95 -208 -197 -242 -225 -138 -114 -329 -336 -513 -596 -106
-150 -117 -196 -73 -289 17 -36 17 -37 -1 -51 -31 -22 -55 -13 -246 95 -82 47
-175 105 -345 216 -96 62 -378 225 -390 225 -3 0 -5 -1326 -5 -2947 l0 -2947
21 -22 21 -23 -21 6 -21 5 0 -1196 0 -1196 3866 0 c3801 0 3866 0 3882 19 13
15 22 17 40 11 12 -5 22 -14 22 -20 0 -7 415 -10 1305 -10 l1305 0 0 5210 0
5210 -2557 0 -2558 0 -20 -38 c-18 -32 -25 -37 -55 -36 -19 0 -44 4 -55 9 -17
7 -16 3 6 -21 15 -16 34 -40 43 -55 14 -23 14 -27 0 -47 -8 -12 -20 -22 -26
-22 -20 0 -78 -32 -78 -44 0 -6 18 -26 40 -45 40 -34 52 -61 26 -61 -8 0 -16
7 -20 15 -8 21 -22 19 -45 -6 -26 -29 -31 -61 -20 -154 9 -86 2 -107 -26 -78
-10 10 -23 18 -28 18 -22 0 -48 54 -54 109 l-6 58 -14 -34 c-10 -23 -13 -53
-10 -100 5 -55 3 -69 -12 -82 -15 -13 -19 -40 -24 -144 -4 -70 -12 -147 -18
-172 -6 -25 -12 -52 -13 -59 -4 -21 -23 -25 -46 -8 -18 12 -26 13 -62 0 -34
-11 -44 -12 -54 -1 -19 20 -25 61 -11 78 24 29 83 67 114 74 71 16 65 56 -8
56 -21 0 -42 7 -50 16 -7 8 -29 24 -49 34 -20 10 -44 30 -54 44 -22 34 -106
111 -120 111 -7 0 -25 10 -40 21 -51 37 -52 144 0 144 6 0 26 16 42 35 38 42
48 102 34 194 -5 36 -8 94 -5 129 l5 62 -624 0 -624 0 -184 -185z m1435 -515
c15 -23 28 -30 52 -30 25 0 38 -8 58 -35 32 -41 29 -59 -26 -132 -38 -51 -39
-54 -24 -77 9 -14 27 -32 41 -41 46 -30 24 -66 -25 -40 -38 19 -61 52 -61 87
0 22 -11 34 -57 65 -32 20 -68 38 -79 38 -12 1 -44 20 -73 44 -60 51 -68 86
-25 120 33 26 50 26 63 2 6 -10 24 -24 41 -31 35 -15 54 -4 64 35 8 33 27 31
51 -5z m537 -60 c36 -17 72 -38 80 -48 19 -22 50 -112 38 -112 -5 0 -11 8 -15
19 -13 41 -64 81 -105 81 -25 0 -110 68 -110 88 0 18 28 11 112 -28z m-2051
-161 c71 -39 164 -87 207 -106 83 -39 335 -188 393 -234 20 -15 71 -47 115
-70 102 -55 157 -92 219 -149 28 -25 81 -68 120 -95 92 -65 206 -174 250 -240
19 -29 49 -65 65 -79 33 -27 116 -56 162 -56 68 0 109 -47 93 -108 -17 -69
-17 -92 -2 -92 9 0 29 12 46 26 29 24 32 25 63 10 18 -8 56 -17 83 -21 28 -4
70 -15 94 -26 52 -23 126 -26 134 -5 9 23 111 32 142 12 33 -21 129 -46 181
-46 27 0 49 -7 65 -21 13 -12 42 -30 64 -41 48 -25 51 -29 59 -80 8 -46 39
-69 121 -87 30 -7 55 -17 55 -23 0 -5 -14 -23 -31 -39 -31 -29 -59 -38 -59
-19 0 5 -16 12 -36 16 -21 4 -50 20 -70 40 -18 19 -36 34 -38 34 -3 0 -14 -17
-25 -37 -21 -42 -50 -70 -68 -67 -7 1 -17 2 -23 3 -5 0 -10 15 -10 32 0 45
-18 74 -36 58 -8 -6 -14 -17 -14 -25 0 -23 -31 -44 -63 -44 -18 0 -49 -9 -70
-20 -23 -12 -56 -20 -87 -20 -32 0 -61 -7 -82 -20 -25 -15 -51 -20 -106 -20
-64 0 -76 -3 -97 -25 -14 -13 -25 -35 -25 -49 0 -33 -17 -42 -40 -21 -25 22
-63 13 -87 -21 -10 -14 -50 -58 -88 -97 -70 -71 -124 -149 -166 -237 -12 -25
-30 -56 -40 -69 -11 -13 -19 -33 -19 -45 0 -30 -26 -64 -53 -68 -16 -2 -23
-11 -27 -36 -3 -20 -30 -63 -73 -116 -60 -75 -71 -84 -107 -89 -23 -3 -48 -11
-57 -19 -31 -25 -213 -312 -224 -352 -6 -23 -20 -59 -30 -80 -10 -22 -17 -42
-14 -45 3 -3 40 31 83 74 73 75 201 189 298 265 24 19 56 53 70 75 40 60 145
175 174 190 14 7 48 34 75 60 71 67 115 95 148 95 22 0 46 16 101 68 75 72
174 145 242 180 62 31 181 54 208 40 46 -25 125 -89 130 -106 4 -11 22 -33 41
-50 43 -39 60 -97 45 -150 -15 -55 -13 -61 24 -83 19 -11 39 -32 46 -48 13
-32 32 -43 105 -60 53 -13 65 -23 65 -57 0 -12 9 -33 21 -48 16 -20 29 -26 58
-26 66 0 79 -60 26 -110 -20 -19 -40 -25 -91 -28 -61 -4 -67 -7 -85 -36 -14
-23 -28 -32 -56 -36 -33 -4 -38 -9 -46 -40 -19 -73 -49 -137 -77 -164 -19 -17
-36 -48 -46 -84 -14 -52 -51 -102 -74 -102 -11 0 -56 44 -63 62 -3 11 -8 11
-26 0 -19 -11 -21 -10 -21 17 0 27 42 102 61 109 5 2 9 8 9 13 0 6 -21 9 -47
8 -45 -2 -52 -6 -118 -73 -38 -40 -83 -80 -98 -90 -16 -10 -38 -39 -49 -64
-32 -73 -57 -102 -104 -123 -30 -12 -48 -28 -55 -46 -27 -69 -35 -78 -84 -94
-40 -12 -54 -23 -72 -55 -18 -32 -139 -154 -239 -241 -27 -23 -108 -199 -100
-218 8 -23 25 -18 36 10 5 14 16 25 23 25 21 0 147 -100 147 -116 0 -23 29
-16 90 22 84 52 95 66 81 105 -26 74 -9 138 49 187 51 43 227 154 290 184 92
43 238 131 347 209 81 59 145 89 187 89 23 0 171 -61 216 -88 14 -9 43 -33 66
-54 32 -30 52 -40 94 -47 56 -9 94 -39 88 -70 -3 -14 -23 -16 -133 -17 -162
-2 -155 -1 -155 -19 0 -8 23 -26 50 -40 57 -29 82 -63 106 -145 9 -30 22 -59
30 -65 7 -5 18 -34 24 -62 5 -29 17 -67 25 -84 15 -28 15 -32 1 -48 -9 -10
-16 -34 -16 -55 0 -72 -43 -102 -75 -53 -12 19 -13 30 -4 56 8 22 8 36 1 43
-21 21 -32 -5 -32 -80 0 -71 3 -81 34 -127 19 -27 41 -73 49 -102 15 -49 14
-52 -5 -69 -28 -26 -88 -137 -88 -162 0 -15 6 -22 18 -22 18 0 29 16 51 75 6
17 22 43 35 59 22 28 27 29 107 30 66 1 93 6 126 24 50 26 85 28 108 6 13 -14
21 -15 41 -5 34 15 89 14 103 -2 8 -10 7 -22 -1 -45 -16 -43 -3 -51 30 -19 49
47 110 29 82 -23 -9 -18 -8 -25 6 -41 16 -18 16 -24 5 -52 -7 -18 -16 -44 -18
-60 -5 -23 -1 -29 26 -38 20 -7 31 -18 31 -30 0 -36 32 -35 59 1 15 18 47 56
72 84 26 28 72 94 103 148 31 53 64 99 74 103 25 9 43 -19 93 -142 43 -106 44
-110 44 -223 l0 -115 -49 -100 c-34 -71 -69 -122 -117 -176 -76 -85 -89 -110
-89 -175 0 -32 -8 -56 -25 -82 -14 -20 -25 -40 -25 -45 0 -11 -149 -308 -163
-325 -6 -8 -11 -68 -12 -145 -1 -123 -3 -138 -34 -217 -60 -156 -59 -135 -9
-272 40 -109 46 -136 52 -233 6 -100 4 -114 -15 -151 -24 -44 -21 -94 6 -94 8
0 27 -17 42 -37 15 -21 36 -44 47 -52 15 -11 17 -24 14 -70 -3 -46 -12 -68
-45 -117 -23 -34 -49 -64 -58 -67 -22 -9 -46 33 -54 95 l-7 53 -38 -38 c-34
-33 -38 -41 -33 -75 3 -20 11 -77 18 -125 12 -84 12 -90 -9 -130 -12 -23 -30
-63 -41 -89 -12 -29 -30 -52 -44 -59 -34 -15 -122 3 -191 40 -31 17 -59 31
-61 31 -9 0 -5 -51 5 -70 6 -11 30 -28 55 -39 89 -39 44 -65 -115 -66 l-115 0
-3 -48 c-2 -27 4 -92 12 -145 8 -53 12 -110 9 -125 -4 -19 2 -43 20 -75 13
-26 30 -65 37 -87 7 -22 23 -60 35 -85 25 -49 41 -169 30 -220 -12 -56 -36
-33 -76 73 -46 120 -60 143 -104 164 -52 25 -60 15 -78 -91 -13 -81 -23 -109
-63 -177 -56 -95 -74 -92 -45 7 59 203 62 274 15 321 -33 33 -65 25 -124 -31
-58 -55 -137 -109 -150 -101 -16 10 13 53 99 149 115 129 133 174 85 219 -24
23 -25 26 -14 68 7 24 22 56 35 71 30 35 65 129 65 173 0 19 5 45 11 58 9 20
6 33 -15 76 -44 87 -91 153 -160 224 -44 46 -77 92 -100 141 -36 76 -98 140
-192 199 -23 14 -51 41 -62 59 -12 19 -55 65 -98 103 -50 45 -83 83 -95 112
-10 23 -22 43 -27 43 -23 0 -62 51 -62 80 0 49 -23 93 -92 171 -141 164 -147
176 -155 331 -7 124 8 213 43 261 13 18 31 42 39 54 19 26 44 123 45 174 0 22
9 47 21 64 18 22 20 29 8 36 -21 13 -110 11 -162 -5 -46 -14 -48 -14 -67 11
-17 22 -27 25 -77 24 -31 0 -59 -3 -61 -6 -12 -12 24 -55 55 -66 18 -6 33 -14
33 -19 0 -15 -101 -105 -118 -105 -20 0 -36 73 -27 124 11 60 -16 29 -35 -39
-9 -36 -24 -92 -34 -125 -9 -32 -16 -69 -16 -80 0 -12 -6 -29 -13 -39 -12 -16
-14 -15 -36 8 -14 15 -29 26 -36 26 -19 0 -43 -54 -50 -115 -4 -33 -17 -89
-30 -125 -12 -36 -25 -86 -29 -112 -9 -61 -23 -74 -86 -82 -47 -6 -51 -9 -46
-29 4 -12 12 -43 19 -69 7 -27 18 -53 25 -60 7 -7 12 -20 12 -30 0 -26 -33
-23 -81 9 l-40 26 -28 -20 c-15 -12 -47 -25 -71 -30 -35 -7 -48 -15 -64 -42
l-19 -34 27 -20 c26 -19 27 -23 21 -77 -5 -45 -3 -59 9 -69 25 -21 19 -36 -31
-81 -55 -48 -72 -74 -102 -154 -12 -32 -40 -79 -61 -104 -22 -25 -40 -48 -40
-53 0 -4 -21 -23 -47 -41 -66 -45 -93 -76 -93 -108 0 -33 -16 -48 -58 -56 -40
-8 -57 -28 -72 -84 -17 -62 -44 -114 -85 -159 -30 -33 -34 -42 -28 -76 l6 -38
-36 6 c-21 4 -52 10 -71 13 l-35 6 -3 -47 -3 -48 -52 -18 -52 -18 -21 34 c-12
19 -47 50 -78 70 -51 32 -58 34 -69 19 -6 -9 -9 -31 -6 -50 6 -39 -3 -43 -40
-14 -14 11 -28 20 -31 20 -13 0 -5 -87 9 -106 25 -33 14 -117 -13 -100 -6 4
-14 23 -18 44 -9 50 -17 58 -76 73 -41 11 -55 21 -79 56 -40 57 -53 56 -43 -5
11 -62 8 -110 -7 -128 -9 -12 -9 -23 1 -55 19 -57 7 -73 -59 -77 -49 -3 -55
-1 -87 34 -19 20 -44 55 -55 78 -53 104 -105 104 -67 0 19 -53 1 -79 -54 -79
-60 -1 -95 -26 -124 -89 -28 -61 -52 -85 -115 -115 -41 -19 -48 -27 -58 -65
-6 -23 -20 -54 -31 -68 -11 -15 -20 -33 -20 -41 0 -27 -24 -37 -63 -26 -20 5
-37 15 -37 22 0 22 31 57 50 57 23 0 42 32 34 54 -9 24 -18 20 -68 -37 -46
-52 -54 -71 -36 -82 19 -12 10 -52 -22 -96 -17 -24 -36 -64 -43 -89 -6 -25
-18 -46 -26 -48 -24 -4 -69 37 -69 63 0 42 -21 72 -64 91 -37 17 -41 22 -40
54 1 19 7 50 15 67 13 31 12 34 -19 66 -18 18 -32 38 -32 45 0 6 -7 33 -16 59
-18 54 -59 102 -122 141 -32 20 -50 42 -72 88 -34 70 -36 86 -15 104 22 18 41
-1 75 -78 22 -48 34 -63 47 -60 14 3 17 11 14 33 -2 17 -4 75 -6 130 -1 55 -3
106 -4 113 -1 15 -58 8 -76 -9 -5 -5 -24 -9 -43 -9 -25 0 -41 -8 -67 -37 l-33
-37 -47 40 c-115 96 -109 89 -96 112 14 26 52 47 103 56 21 4 40 11 44 17 11
18 -27 49 -61 49 -37 0 -49 12 -59 55 -12 47 -23 55 -58 43 -26 -9 -33 -8 -51
11 l-22 22 29 24 c26 21 29 29 27 73 -1 34 4 53 14 62 9 7 17 11 18 9 2 -2 11
-16 20 -31 20 -33 43 -28 88 18 57 59 66 52 123 -94 l24 -64 -19 -55 c-10 -31
-19 -61 -19 -68 0 -12 74 -65 93 -66 7 0 25 -8 42 -18 30 -18 53 -65 78 -161
8 -28 18 -46 29 -48 16 -3 18 5 17 65 -1 55 -5 75 -25 104 -22 32 -24 42 -17
84 4 26 12 48 18 49 5 0 33 -39 62 -89 29 -49 61 -104 72 -122 22 -34 68 -70
77 -60 7 7 -69 194 -131 322 -45 93 -98 154 -268 314 -37 35 -67 64 -65 66 11
10 113 -16 145 -36 90 -60 121 -81 163 -115 77 -62 116 -100 175 -170 81 -96
166 -187 170 -182 11 11 -39 81 -116 163 -47 50 -94 108 -104 129 -34 71 -233
226 -365 285 -77 35 -165 94 -174 118 -4 8 8 20 29 30 45 21 48 53 5 53 -31 0
-80 18 -80 30 0 28 69 42 107 21 29 -15 39 -14 57 5 23 23 20 51 -9 76 -34 29
-31 53 10 99 19 22 35 45 35 53 0 8 14 27 30 43 34 31 40 63 12 63 -21 0 -70
-49 -106 -107 -14 -23 -41 -54 -60 -69 -27 -22 -33 -32 -25 -45 12 -24 -7 -35
-35 -19 -18 9 -30 9 -60 -4 -49 -21 -74 -10 -66 29 1 6 3 17 5 25 2 8 10 43
19 77 12 44 13 69 6 87 -5 14 -11 26 -14 26 -2 0 -24 -18 -48 -40 -45 -41 -78
-51 -78 -24 0 24 55 74 90 80 17 4 35 15 41 25 10 20 88 69 109 69 7 0 21 -7
30 -15 16 -14 18 -12 23 37 5 42 14 59 43 89 36 37 37 39 30 93 l-6 54 38 23
c20 13 59 41 85 63 27 23 63 53 80 68 l32 27 -28 29 -29 30 23 16 c13 9 28 16
33 16 15 0 46 32 46 48 0 33 152 212 180 212 12 0 33 40 26 47 -3 3 -25 -12
-50 -35 -86 -79 -143 -92 -158 -35 -13 50 -32 54 -23 4 8 -50 -5 -71 -46 -71
-17 0 -42 -12 -61 -29 -94 -81 -127 -54 -57 46 22 32 29 52 29 89 0 38 11 71
56 161 48 97 60 113 80 113 13 0 24 5 24 10 0 6 6 10 13 8 6 -1 23 2 36 6 41
14 53 -14 34 -77 -16 -55 -47 -122 -68 -147 -6 -8 -15 -23 -19 -34 -6 -16 -3
-18 26 -12 18 3 42 16 54 27 28 27 78 136 102 224 13 50 33 89 68 137 27 36
69 101 93 143 40 70 44 84 47 154 5 120 14 163 41 199 22 30 24 37 13 60 -10
22 -9 28 6 39 10 7 25 13 35 13 24 0 34 16 59 89 15 45 19 75 15 102 -6 34 -3
42 23 66 27 26 30 34 31 99 0 48 7 85 21 115 11 24 20 58 20 74 0 48 17 94 42
115 19 15 23 28 24 82 2 148 12 191 75 339 90 214 97 226 168 310 36 42 86
103 111 134 24 31 96 107 160 169 173 168 274 285 395 456 60 85 150 208 200
273 49 65 106 139 125 166 20 26 68 83 109 127 88 95 143 175 159 230 15 52
71 126 117 154 79 49 258 76 299 45 14 -10 35 -12 82 -8 53 5 68 3 84 -12 19
-17 20 -17 30 10 29 76 19 90 -198 297 -56 54 -126 113 -156 132 -30 19 -62
47 -71 63 -24 39 -108 104 -191 147 -38 20 -96 57 -129 81 -33 25 -93 61 -134
81 -41 20 -99 55 -129 77 -62 48 -60 46 -167 115 -45 29 -103 59 -130 68 -68
23 -85 40 -85 83 0 61 63 131 119 131 13 0 81 -32 152 -71z m1167 -93 c19 -37
32 -70 28 -73 -3 -4 -17 0 -31 7 -17 9 -30 29 -40 64 -30 101 -7 102 43 2z
m779 48 c-3 -3 -12 -4 -19 -1 -8 3 -5 6 6 6 11 1 17 -2 13 -5z m-937 -35 c0
-12 12 -43 27 -69 15 -27 24 -52 20 -56 -8 -8 -37 14 -37 28 0 5 -11 24 -25
42 -31 41 -33 76 -5 76 14 0 20 -7 20 -21z m361 -121 c23 -13 39 -29 39 -40 0
-17 -56 -77 -72 -78 -10 0 -77 73 -78 84 0 15 42 56 58 56 8 0 32 -10 53 -22z
m-197 -91 c6 -9 7 -19 3 -23 -9 -9 -37 15 -37 33 0 18 20 12 34 -10z m311 -99
c35 -16 32 -36 -5 -30 -21 3 -30 10 -30 23 0 22 1 23 35 7z m152 -94 c3 -8 1
-20 -6 -27 -14 -14 -47 15 -37 32 10 16 36 13 43 -5z m3773 -919 c0 -30 -30
-75 -50 -75 -23 0 -28 37 -10 71 13 23 60 26 60 4z m-2660 -367 c0 -16 -3 -19
-11 -11 -6 6 -8 16 -5 22 11 17 16 13 16 -11z m-789 -91 c-13 -13 -26 -3 -16
12 3 6 11 8 17 5 6 -4 6 -10 -1 -17z m-291 -81 c0 -18 -9 -68 -20 -111 -21
-81 -49 -125 -81 -125 -11 0 -29 -21 -49 -58 -44 -82 -130 -130 -130 -73 0 10
8 29 18 42 26 37 42 67 42 82 0 29 89 203 117 228 71 65 103 70 103 15z m970
-891 c-7 -8 -21 -15 -32 -15 -17 0 -18 3 -8 15 7 8 21 15 32 15 17 0 18 -3 8
-15z m-540 -411 c0 -8 -4 -12 -10 -9 -5 3 -10 10 -10 16 0 5 5 9 10 9 6 0 10
-7 10 -16z m-3250 -575 c0 -6 -11 -24 -25 -41 -28 -33 -33 -22 -10 22 15 30
35 40 35 19z m-78 -178 c-4 -30 -35 -71 -52 -71 -11 0 -3 22 25 68 24 40 33
41 27 3z m6344 -165 c75 -21 210 -39 299 -40 71 -1 114 5 233 30 24 5 32 3 32
-8 0 -20 -64 -48 -124 -55 -58 -6 -81 -25 -65 -54 15 -28 122 -79 166 -79 50
0 200 -25 237 -39 16 -6 61 -14 101 -18 96 -8 106 -14 75 -48 -23 -24 -30 -26
-75 -20 -113 14 -163 23 -225 38 -162 41 -210 45 -210 18 0 -10 7 -13 169 -52
51 -12 109 -33 127 -45 19 -13 53 -28 76 -34 105 -27 177 -61 197 -93 11 -17
18 -33 16 -35 -2 -2 -29 8 -59 23 -60 29 -86 28 -86 -5 0 -14 -7 -20 -22 -20
-37 0 -119 25 -173 52 -27 14 -66 31 -86 37 -34 11 -169 137 -169 158 0 4 -19
14 -42 21 -24 8 -53 23 -66 35 l-22 21 -48 -47 c-26 -26 -52 -47 -57 -47 -40
0 -165 100 -165 132 0 5 11 14 25 20 30 14 32 29 5 53 -16 14 -29 16 -74 11
-55 -7 -56 -7 -76 26 -11 18 -20 43 -20 56 0 27 31 29 106 8z m-1981 -118 c38
-17 28 -42 -18 -46 -44 -4 -63 22 -32 44 23 17 18 17 50 2z m2502 -417 c51
-40 103 -96 103 -112 0 -31 -26 -99 -38 -99 -38 0 -142 151 -142 206 0 56 12
57 77 5z m-7122 -104 c-2 -45 -31 -100 -81 -155 l-42 -47 -11 29 c-14 35 -7
61 28 106 16 19 35 49 44 67 28 52 63 53 62 0z m-655 -1221 c0 -16 -14 -36
-26 -36 -14 0 -19 22 -7 33 7 8 33 10 33 3z m7443 -913 c18 -10 34 -21 37 -24
12 -13 71 -31 86 -25 9 4 33 -3 53 -15 62 -36 181 -131 181 -144 0 -7 -11 -20
-25 -29 -14 -9 -39 -39 -56 -66 -17 -28 -44 -59 -60 -71 -43 -30 -35 -89 12
-89 14 0 16 7 12 39 -5 38 -3 41 83 126 97 97 122 106 161 61 17 -20 21 -34
17 -56 -10 -48 -1 -59 41 -50 47 11 59 -12 22 -43 -29 -25 -80 -122 -97 -187
-6 -25 -23 -61 -36 -81 -27 -39 -47 -97 -38 -110 11 -18 25 -7 45 37 18 38 25
45 43 39 110 -34 139 -37 144 -14 2 9 -13 26 -37 42 -45 30 -60 65 -42 103 15
35 70 66 104 59 15 -3 41 -8 58 -11 l31 -7 -7 62 -7 63 30 -16 c17 -9 47 -37
67 -63 31 -41 35 -52 30 -84 -5 -31 -3 -39 14 -49 12 -6 29 -10 38 -8 36 6 21
-23 -30 -61 -53 -39 -97 -85 -97 -102 0 -11 44 -6 93 10 34 11 41 11 58 -5 10
-9 19 -28 19 -41 0 -14 13 -38 29 -54 29 -29 59 -40 45 -17 -5 7 17 -9 47 -35
l55 -47 -3 -97 c-2 -61 -9 -110 -18 -130 -20 -42 -24 -267 -6 -301 10 -19 15
-21 34 -11 12 7 25 17 29 23 13 19 48 -25 48 -60 0 -46 -59 -204 -87 -234 -20
-21 -26 -23 -43 -12 -33 20 -40 6 -40 -74 0 -56 -5 -85 -21 -115 -25 -50 -46
-47 -40 7 12 112 3 123 -58 68 -30 -26 -41 -44 -41 -64 0 -40 -24 -60 -71 -60
-21 0 -39 3 -39 6 0 4 10 24 22 45 l22 39 -24 25 c-31 33 -39 32 -47 -6 -4
-21 -19 -40 -43 -58 -21 -14 -43 -39 -50 -55 -12 -27 -15 -28 -62 -22 -46 6
-51 5 -78 -24 -33 -35 -57 -39 -62 -9 -2 18 -11 22 -48 25 -25 1 -61 5 -81 9
-32 6 -39 3 -70 -30 -31 -33 -37 -35 -74 -29 -68 11 -121 52 -97 76 5 5 26 -5
47 -22 46 -37 88 -38 93 -3 4 30 -39 73 -73 73 -27 0 -44 25 -28 41 6 6 30 10
54 11 69 1 83 12 75 64 -5 43 -5 44 23 44 20 0 31 7 39 25 7 16 20 25 34 25
47 1 102 43 130 100 15 30 28 60 28 66 0 5 14 23 30 39 17 16 30 37 30 47 0
27 -37 23 -45 -4 -4 -13 -22 -39 -40 -58 -18 -19 -38 -45 -44 -57 -16 -32 -54
-30 -79 4 -28 38 -57 25 -49 -22 5 -30 2 -38 -20 -52 -14 -9 -46 -22 -71 -28
-45 -12 -47 -14 -50 -51 -2 -21 -10 -45 -19 -52 -23 -16 -53 -15 -53 2 0 8 -7
22 -16 31 -16 15 -18 15 -33 0 -15 -15 -14 -18 12 -39 35 -28 34 -53 -3 -74
-17 -10 -30 -27 -32 -41 -4 -35 -28 -39 -28 -6 0 15 -11 40 -24 56 -21 25 -24
35 -19 91 6 77 17 103 59 129 32 19 50 46 39 58 -4 3 -24 -4 -45 -17 -54 -30
-85 -28 -111 7 -27 37 -70 55 -105 47 -15 -4 -40 -2 -55 4 -25 11 -34 8 -87
-24 -35 -21 -66 -33 -78 -30 -25 7 -59 -29 -78 -82 -17 -49 -12 -59 33 -71 39
-10 65 -42 42 -51 -24 -8 -52 -43 -49 -60 2 -12 15 -18 40 -20 27 -2 44 -12
62 -33 31 -36 36 -36 36 1 0 16 7 44 16 62 15 32 14 37 -9 100 -14 36 -23 69
-20 72 12 12 52 5 61 -10 5 -9 18 -14 28 -12 15 2 20 13 22 48 4 61 16 70 50
37 15 -15 33 -27 38 -27 30 0 30 -23 1 -76 -22 -42 -28 -64 -24 -90 6 -38 0
-41 -44 -18 -42 21 -61 6 -48 -41 13 -45 -2 -74 -42 -82 -25 -5 -29 -10 -29
-38 0 -19 8 -39 20 -50 21 -19 28 -75 10 -75 -6 0 -20 16 -31 35 -22 37 -36
43 -60 23 -20 -17 -42 -108 -34 -139 7 -28 -25 -66 -45 -54 -6 4 -25 38 -42
76 -17 38 -35 69 -40 69 -6 0 -7 -31 -3 -78 9 -96 1 -106 -71 -93 -80 15 -95
25 -186 120 -63 65 -88 98 -88 116 0 14 5 25 10 25 15 0 12 47 -4 83 -23 51
-26 77 -19 155 l6 74 53 34 c30 19 58 43 64 54 7 13 21 20 40 20 45 0 39 30
-12 63 -41 26 -38 66 9 118 l37 41 -24 19 c-20 16 -35 18 -75 13 -63 -8 -73
-16 -86 -71 -29 -112 -44 26 -18 157 10 46 20 63 63 106 119 118 135 153 123
273 -7 66 5 140 24 152 8 5 26 9 41 9 15 0 29 4 32 9 15 24 141 -12 164 -46
l17 -27 7 53 c3 30 16 66 27 82 26 35 27 56 1 64 -16 5 -20 15 -20 50 0 41 2
44 35 55 40 13 44 31 19 84 -16 32 -16 36 6 80 l22 46 25 -20 c14 -11 34 -20
43 -20 27 0 41 -24 34 -58 -8 -42 11 -49 79 -30 70 20 73 41 13 101 -49 48
-53 64 -36 139 5 24 12 56 15 71 6 28 9 31 56 41 18 4 32 18 43 40 32 68 56
78 109 49z m-8174 -338 c28 -40 66 -85 84 -101 19 -16 46 -39 60 -51 15 -13
27 -32 27 -43 0 -19 -5 -17 -46 17 -52 43 -204 233 -204 254 0 22 34 -10 79
-76z m667 -142 c-10 -10 -19 5 -10 18 6 11 8 11 12 0 2 -7 1 -15 -2 -18z
m1678 -419 c3 -9 6 -25 6 -36 0 -25 -33 -21 -38 5 -8 38 19 64 32 31z m3591
-72 c6 -4 37 -42 69 -85 65 -86 64 -97 -5 -97 -39 0 -57 11 -82 52 -16 25 -22
28 -71 25 -30 -1 -58 1 -62 5 -4 4 -3 27 2 50 7 33 15 44 34 49 34 10 103 10
115 1z m-3677 -64 c14 -14 16 -48 3 -48 -15 0 -41 30 -41 46 0 17 22 18 38 2z
m4979 -1050 c-3 -8 -6 -5 -6 6 -1 11 2 17 5 13 3 -3 4 -12 1 -19z m1898 -75
c-9 -21 -21 -44 -28 -50 -21 -21 -20 34 1 62 28 40 45 32 27 -12z m-130 -3 c4
-12 4 -39 0 -60 -6 -37 -5 -41 19 -50 25 -9 26 -11 12 -37 -31 -61 -140 -144
-166 -128 -27 17 4 141 43 174 10 7 17 26 17 42 0 48 17 79 44 79 16 0 27 -7
31 -20z m-341 -106 c33 -13 11 -64 -26 -64 -27 0 -33 27 -13 50 21 23 18 22
39 14z m-4473 -72 c-24 -4 -71 22 -71 38 0 5 21 0 46 -13 38 -18 43 -23 25
-25z m3509 -10 c-1 -41 -66 -81 -132 -82 -44 0 -33 19 25 44 28 13 60 33 71
45 20 22 36 20 36 -7z"/>
<path d="M4610 9623 c0 -17 32 -53 46 -53 11 0 14 8 12 28 -2 21 -9 28 -30 30
-16 2 -28 0 -28 -5z"/>
<path d="M3636 8111 c-4 -7 -5 -15 -2 -18 9 -9 19 4 14 18 -4 11 -6 11 -12 0z"/>
<path d="M3933 7998 c-23 -30 -24 -41 -2 -21 12 12 20 25 17 28 -3 3 -10 0
-15 -7z"/>
<path d="M3543 7568 c-46 -62 -104 -152 -128 -199 l-18 -34 28 25 c15 14 52
60 82 104 84 120 116 209 36 104z"/>
<path d="M2595 6550 c-10 -11 -13 -20 -7 -20 6 0 16 9 22 20 6 11 9 20 7 20
-2 0 -12 -9 -22 -20z"/>
<path d="M2522 6474 c-12 -8 -22 -23 -22 -32 0 -9 -9 -35 -19 -57 -28 -62 -13
-72 25 -18 31 43 53 107 42 118 -2 3 -14 -2 -26 -11z"/>
<path d="M2410 6339 c0 -11 5 -17 10 -14 6 3 10 13 10 21 0 8 -4 14 -10 14 -5
0 -10 -9 -10 -21z"/>
<path d="M2455 6300 c-3 -5 -1 -10 4 -10 6 0 11 5 11 10 0 6 -2 10 -4 10 -3 0
-8 -4 -11 -10z"/>
<path d="M2269 6182 c-51 -25 -48 -45 7 -61 41 -12 51 -12 73 0 33 18 40 55
12 64 -43 13 -60 13 -92 -3z"/>
<path d="M2287 6032 c-20 -22 -67 -127 -67 -149 0 -43 82 73 95 135 7 36 -3
41 -28 14z"/>
<path d="M5415 5855 c-27 -14 -39 -22 -25 -19 30 8 99 43 85 43 -5 1 -32 -10
-60 -24z"/>
<path d="M4181 5498 c-16 -45 -21 -77 -12 -83 10 -6 16 8 26 68 7 41 -1 49
-14 15z"/>
<path d="M4406 5463 c-11 -11 -6 -23 9 -23 8 0 15 4 15 9 0 13 -16 22 -24 14z"/>
<path d="M4412 5359 c-18 -5 -38 -19 -45 -30 -6 -11 -30 -30 -52 -41 -51 -26
-135 -107 -135 -130 0 -27 17 -22 42 13 29 39 106 95 167 121 51 21 93 56 85
69 -6 11 -19 10 -62 -2z"/>
<path d="M2797 4826 c-3 -8 -3 -17 0 -20 7 -7 33 13 33 25 0 15 -27 10 -33 -5z"/>
<path d="M4933 4712 c-74 -7 -65 -45 33 -137 59 -55 64 -64 64 -102 0 -23 3
-48 6 -57 11 -29 24 -17 24 23 0 48 14 60 63 56 47 -4 58 16 45 84 -10 53 -7
50 -83 91 -66 36 -104 47 -152 42z"/>
<path d="M5130 4389 c-6 -11 -22 -24 -35 -29 -26 -10 -52 -76 -42 -105 6 -14
9 -14 33 2 36 23 84 91 84 118 0 31 -27 40 -40 14z"/>
<path d="M4110 4230 c0 -5 5 -10 11 -10 5 0 7 5 4 10 -3 6 -8 10 -11 10 -2 0
-4 -4 -4 -10z"/>
<path d="M1420 3822 c0 -13 23 -32 39 -32 11 0 10 4 -4 20 -19 21 -35 26 -35
12z"/>
<path d="M3880 3706 c0 -8 4 -17 9 -20 10 -7 23 19 14 28 -11 11 -23 6 -23 -8z"/>
<path d="M1103 3337 c-7 -14 -8 -30 -3 -38 7 -10 11 -6 19 14 6 16 11 33 11
38 0 18 -17 9 -27 -14z"/>
<path d="M5447 3332 c-25 -28 -34 -135 -14 -166 28 -42 81 -67 164 -76 75 -8
79 -7 101 17 32 35 28 53 -26 112 -43 47 -51 52 -70 42 -11 -6 -28 -11 -38
-11 -14 0 -16 7 -10 40 5 32 3 41 -13 50 -30 16 -76 12 -94 -8z"/>
<path d="M3142 3317 c-14 -17 2 -42 22 -34 20 8 20 21 2 36 -10 8 -16 8 -24
-2z"/>
<path d="M1520 2990 c-20 -20 -27 -50 -12 -50 9 0 44 36 56 58 12 20 -22 14
-44 -8z"/>
<path d="M1200 2836 c0 -16 48 -46 74 -46 8 0 32 -18 52 -40 40 -43 135 -120
149 -120 12 0 -102 120 -144 152 -67 51 -76 57 -103 63 -22 6 -28 4 -28 -9z"/>
<path d="M2639 2304 c-21 -22 -30 -25 -66 -20 -35 5 -44 2 -53 -14 -5 -10 -10
-21 -10 -23 0 -2 27 -7 60 -11 83 -10 120 10 120 67 0 34 -19 35 -51 1z"/>
<path d="M2685 1920 c-3 -5 1 -10 9 -10 8 0 18 5 21 10 3 6 -1 10 -9 10 -8 0
-18 -4 -21 -10z"/>
<path d="M2405 1720 c3 -5 13 -10 21 -10 8 0 12 5 9 10 -3 6 -13 10 -21 10 -8
0 -12 -4 -9 -10z"/>
<path d="M8107 2028 c-23 -12 -22 -45 2 -58 25 -13 27 -13 45 6 29 28 -11 72
-47 52z"/>
<path d="M8221 1940 c-10 -33 -20 -44 -56 -61 -51 -24 -61 -43 -40 -75 21 -33
48 -30 82 10 47 53 77 121 63 145 -17 32 -36 25 -49 -19z"/>
<path d="M8393 1806 c-24 -20 -25 -26 -14 -40 20 -24 64 -20 91 9 19 20 21 27
10 40 -18 22 -55 18 -87 -9z"/>
<path d="M8877 1763 c-10 -9 -8 -53 2 -53 5 0 14 7 21 15 20 24 -2 59 -23 38z"/>
<path d="M8164 1704 c3 -9 6 -18 6 -20 0 -2 4 -4 9 -4 5 0 7 9 4 20 -3 11 -10
20 -15 20 -6 0 -7 -7 -4 -16z"/>
<path d="M7940 1685 c0 -15 47 -51 55 -43 7 7 -34 58 -46 58 -5 0 -9 -7 -9
-15z"/>
<path d="M7750 1669 c0 -25 24 -50 66 -69 58 -25 64 -25 64 0 0 13 -14 25 -44
38 -24 11 -47 25 -50 31 -9 14 -36 14 -36 0z"/>
<path d="M8190 1636 c0 -33 23 -49 59 -41 37 8 49 23 24 31 -10 3 -33 12 -50
20 -32 13 -33 13 -33 -10z"/>
<path d="M7895 1552 c-16 -9 -31 -18 -33 -19 -11 -5 25 -86 41 -95 17 -9 25
-5 49 23 38 46 46 78 23 96 -25 17 -44 16 -80 -5z"/>
<path d="M8080 1557 c0 -7 6 -22 14 -33 22 -28 41 -6 20 24 -17 24 -34 29 -34
9z"/>
<path d="M9223 1520 c-8 -12 -9 -21 -3 -25 14 -9 27 1 33 25 7 26 -14 26 -30
0z"/>
<path d="M8235 1487 c-2 -7 -9 -38 -15 -70 -10 -50 -9 -62 4 -83 21 -30 27
-30 65 2 34 28 38 44 19 75 -11 17 -10 22 5 33 17 13 23 36 10 36 -5 0 -25 4
-46 9 -27 7 -39 6 -42 -2z"/>
<path d="M8084 1461 c-12 -20 -26 -31 -40 -31 -13 0 -39 -15 -59 -34 -34 -33
-35 -36 -22 -58 8 -13 20 -40 27 -60 8 -27 17 -38 31 -38 26 0 26 51 -1 75
-11 10 -20 23 -20 29 0 15 75 76 93 76 20 0 39 25 35 46 -5 29 -25 27 -44 -5z"/>
<path d="M7680 1425 c0 -9 10 -20 23 -25 12 -5 34 -19 48 -31 33 -26 66 -18
75 18 9 33 -9 44 -62 36 -26 -3 -44 -1 -48 6 -10 16 -36 13 -36 -4z"/>
<path d="M9200 1401 c-14 -28 -13 -53 6 -79 31 -45 74 -18 74 47 0 47 -59 70
-80 32z"/>
<path d="M8496 1388 c-9 -12 -16 -26 -16 -30 0 -13 38 -28 54 -22 21 8 21 60
0 68 -22 8 -21 9 -38 -16z"/>
<path d="M8237 1283 c-11 -10 -8 -71 3 -78 10 -6 80 44 80 57 0 6 -55 28 -70
28 -4 0 -10 -3 -13 -7z"/>
<path d="M7770 1240 c-21 -21 -19 -31 13 -72 19 -24 109 -25 131 -2 27 27 19
52 -24 74 -50 26 -94 26 -120 0z"/>
<path d="M8107 1203 c-13 -12 -8 -83 6 -83 19 0 57 29 57 45 0 8 -10 21 -22
29 -25 18 -32 19 -41 9z"/>
<path d="M8340 1170 c-14 -4 -41 -6 -61 -3 -62 9 -81 -29 -59 -121 9 -43 23
-56 58 -56 22 0 23 3 18 38 -8 45 -1 55 47 75 21 9 41 26 46 39 14 38 3 44
-49 28z"/>
<path d="M7940 1147 c-23 -12 -25 -18 -25 -87 1 -41 6 -83 11 -93 10 -18 12
-18 27 -2 10 9 17 28 17 43 0 14 10 46 22 70 31 64 5 99 -52 69z"/>
<path d="M9152 1105 c-28 -39 -35 -44 -52 -35 -10 5 -27 23 -36 40 -23 38 -34
29 -34 -26 0 -55 12 -79 49 -98 27 -14 29 -14 58 17 16 18 37 52 46 77 31 83
18 94 -31 25z"/>
<path d="M8588 1069 c-38 -22 -5 -79 36 -63 19 7 21 45 4 62 -14 14 -18 14
-40 1z"/>
<path d="M9370 1053 c0 -6 13 -44 29 -84 26 -66 54 -100 68 -85 8 8 -17 64
-42 95 -12 14 -29 40 -38 56 -9 17 -16 25 -17 18z"/>
<path d="M9143 963 c-7 -2 -13 -9 -13 -15 0 -5 -9 -21 -20 -35 -11 -14 -20
-32 -20 -39 0 -19 24 -18 40 1 15 18 71 20 88 3 21 -21 13 -46 -25 -75 -21
-15 -48 -38 -60 -50 -12 -13 -31 -23 -42 -23 -42 0 -175 -133 -154 -154 10 -9
52 -7 72 4 10 5 21 23 24 39 7 33 81 91 115 91 11 0 28 3 37 6 21 8 75 88 75
111 0 19 -25 95 -41 125 -9 17 -47 23 -76 11z"/>
<path d="M8882 879 c4 -32 32 -46 53 -29 16 13 15 15 -5 32 -31 25 -52 23 -48
-3z"/>
<path d="M9327 893 c-11 -10 -8 -71 3 -78 34 -21 76 39 50 70 -13 16 -42 20
-53 8z"/>
<path d="M7780 599 c0 -11 7 -44 15 -72 l15 -52 52 1 c42 0 54 4 56 18 4 21
-24 66 -41 66 -7 0 -21 14 -30 30 -22 37 -67 43 -67 9z"/>
<path d="M7687 456 c-50 -31 -54 -36 -37 -46 22 -14 67 -12 83 4 14 14 12 66
-2 66 -3 0 -23 -11 -44 -24z"/>
<path d="M251 10378 c1 -24 54 -122 72 -132 28 -17 39 11 21 53 -25 61 -95
119 -93 79z"/>
<path d="M4856 10130 c-14 -22 -24 -40 -22 -40 9 0 59 70 54 75 -3 3 -17 -13
-32 -35z"/>
<path d="M1276 10121 c-7 -11 22 -23 35 -15 5 3 7 10 4 15 -8 12 -32 12 -39 0z"/>
<path d="M780 10093 c0 -3 16 -30 36 -59 39 -57 65 -64 38 -11 -26 51 -74 97
-74 70z"/>
<path d="M4772 10017 c-45 -45 -51 -61 -28 -70 15 -6 80 86 74 104 -2 5 -22
-10 -46 -34z"/>
<path d="M217 10019 c-21 -11 -36 -26 -34 -32 7 -23 39 -19 68 9 49 47 33 58
-34 23z"/>
<path d="M4780 9910 c0 -6 6 -17 13 -24 6 -8 22 -25 34 -40 14 -15 33 -26 48
-26 21 0 25 5 25 30 0 20 -7 34 -22 44 -32 19 -98 30 -98 16z"/>
<path d="M4631 9900 c-7 -4 -12 -13 -10 -19 3 -8 10 -8 23 2 21 15 9 31 -13
17z"/>
<path d="M1297 9796 c-3 -7 7 -23 24 -35 32 -24 38 -14 13 24 -18 28 -29 31
-37 11z"/>
<path d="M260 9665 c0 -34 91 -147 106 -133 9 10 -44 106 -68 122 -23 16 -38
20 -38 11z"/>
<path d="M1880 9470 c0 -32 14 -55 29 -46 16 10 14 20 -9 47 l-19 24 -1 -25z"/>
<path d="M835 9320 c20 -23 29 -21 19 4 -3 9 -13 16 -22 16 -13 0 -12 -3 3
-20z"/>
<path d="M870 9258 c0 -9 5 -20 10 -23 13 -8 13 5 0 25 -8 13 -10 13 -10 -2z"/>
<path d="M506 8765 c4 -9 16 -20 27 -26 17 -10 19 -9 14 6 -4 9 -7 21 -7 26 0
5 -9 9 -20 9 -13 0 -18 -5 -14 -15z"/>
</g>
</svg>
